<?xml version="1.0" encoding="utf-8"?>
<!-- Generator: Adobe Illustrator 26.0.3, SVG Export Plug-In . SVG Version: 6.00 Build 0)  -->
<svg version="1.1" id="Layer_1" xmlns="http://www.w3.org/2000/svg" xmlns:xlink="http://www.w3.org/1999/xlink" x="0px" y="0px"
	 viewBox="0 0 1920 540" style="enable-background:new 0 0 1920 540;" xml:space="preserve">
<style type="text/css">
	.st0{fill:#A6A867;}
	.st1{opacity:0.5;fill:url(#SVGID_1_);}
	.st2{fill:url(#SVGID_00000007420603300320290070000014266440965673454484_);}
	.st3{fill:#FFFFFF;}
	.st4{display:none;}
	.st5{font-family:'CenturyGothic';}
	.st6{font-size:419.5194px;}
</style>
<g>
	<rect x="-1.5" y="-10.5" class="st0" width="1931" height="604"/>
	<path d="M1929-10v603H-1V-10H1929 M1930-11H-2v605h1932V-11L1930-11z"/>
</g>
<g>
	
		<radialGradient id="SVGID_1_" cx="2287.9734" cy="-215.4394" r="513.8843" gradientTransform="matrix(0.6147 0 0 0.586 148.1487 401.7689)" gradientUnits="userSpaceOnUse">
		<stop  offset="0" style="stop-color:#FFFFFF;stop-opacity:0"/>
		<stop  offset="0.8529" style="stop-color:#FFFFFF;stop-opacity:0.8529"/>
		<stop  offset="1" style="stop-color:#FFFFFF"/>
	</radialGradient>
	<path class="st1" d="M1554.56,485.83c-29.77,0-58.67-5.56-85.88-16.54c-26.27-10.59-49.86-25.76-70.12-45.06
		c-20.25-19.31-36.16-41.8-47.27-66.85c-11.51-25.94-17.34-53.49-17.34-81.87c0-28.38,5.84-55.93,17.34-81.87
		c11.11-25.05,27.02-47.54,47.27-66.85s43.84-34.47,70.12-45.06c27.21-10.97,56.1-16.54,85.88-16.54c29.77,0,58.67,5.56,85.88,16.54
		c26.27,10.59,49.86,25.76,70.12,45.06s36.16,41.8,47.27,66.85c11.51,25.94,17.34,53.49,17.34,81.87c0,28.38-5.84,55.93-17.34,81.87
		c-11.11,25.05-27.02,47.54-47.27,66.85c-20.25,19.31-43.85,34.47-70.12,45.06C1613.23,480.27,1584.34,485.83,1554.56,485.83z"/>
	
		<radialGradient id="SVGID_00000138539279941714428320000014271948752346940603_" cx="2287.9734" cy="-215.4395" r="468.0645" gradientTransform="matrix(0.6147 0 0 0.586 148.1487 401.7689)" gradientUnits="userSpaceOnUse">
		<stop  offset="0" style="stop-color:#FFFFFF;stop-opacity:0"/>
		<stop  offset="0.9837" style="stop-color:#FFFFFF;stop-opacity:0.9837"/>
		<stop  offset="1" style="stop-color:#FFFFFF"/>
	</radialGradient>
	<path style="fill:url(#SVGID_00000138539279941714428320000014271948752346940603_);" d="M1554.56,83.95
		c-110.98,0-200.94,85.77-200.94,191.56s89.96,191.57,200.94,191.57s200.94-85.77,200.94-191.57S1665.54,83.95,1554.56,83.95z"/>
	<g>
		<path class="st3" d="M1554.56,470.61c-112.84,0-204.65-87.52-204.65-195.1s91.8-195.1,204.65-195.1
			c112.84,0,204.65,87.52,204.65,195.1S1667.41,470.61,1554.56,470.61z M1554.56,87.48c-108.76,0-197.23,84.35-197.23,188.03
			s88.48,188.03,197.23,188.03c108.75,0,197.23-84.35,197.23-188.03S1663.32,87.48,1554.56,87.48z"/>
		<path class="st3" d="M1554.56,467.68c-111.15,0-201.57-86.21-201.57-192.17s90.43-192.17,201.57-192.17
			c111.15,0,201.57,86.21,201.57,192.17S1665.71,467.68,1554.56,467.68z M1554.56,84.55c-110.45,0-200.31,85.67-200.31,190.96
			s89.86,190.96,200.31,190.96c110.45,0,200.31-85.67,200.31-190.96S1665.01,84.55,1554.56,84.55z"/>
	</g>
	<path class="st3" d="M1629.87,256.56l-120.42-66.28c-15.31-8.43-34.45,2.11-34.45,18.96V341.8c0,16.85,19.14,27.39,34.45,18.96
		l120.42-66.28c7.65-4.21,11.48-11.59,11.48-18.96S1637.52,260.77,1629.87,256.56z"/>
</g>
<text transform="matrix(1 0 0 1 733.1195 408.5171)" class="st4 st5 st6">Flix</text>
<text transform="matrix(1 0 0 1 111.3979 397.8711)" class="st5 st6">my</text>
<text transform="matrix(1 0 0 1 725.1193 399.2384)" class="st5 st6">Flix</text>
</svg>
